<svg width="308" height="197" viewBox="0 0 308 197" fill="none" xmlns="http://www.w3.org/2000/svg">
<g filter="url(#filter0_d)">
<rect x="4" width="300" height="188.8" rx="15" fill="#C4C4C4"/>
<path d="M201.333 60C199.556 59.5556 195.889 58.5556 195.667 60C195.444 61.4444 195 64 195 64L192 64.2222C192 64.2222 191.667 63.8889 191.333 62.6667C191 61.4445 187.778 50.6667 185.222 47C182.667 43.3333 180.889 43.7778 180.889 43.7778V43.8889C180.889 43.8889 170.889 42 153.889 42C136.889 42 126.889 43.8889 126.889 43.8889V43.7778C126.889 43.7778 125.222 43.3333 122.556 47C120 50.6667 116.778 61.4445 116.444 62.6667C116.111 63.8889 115.778 64.2222 115.778 64.2222L112.889 64C112.889 64 112.556 61.4444 112.222 60C112 58.5556 108.333 59.5556 106.556 60C104.889 60.3333 104 63.1111 104 63.6667C104 64.2222 104.444 64.6667 105.222 65C106 65.3333 110.778 65.6667 111.556 65.6667C112.444 65.6667 112.333 65.4445 112.333 65.4445L115.222 65.6667C115.222 65.6667 115 66.6667 114.444 66.8889C113.889 67.1111 113.778 67.6667 113.444 68.1111C113.111 68.5556 109.778 71 109.222 72.4445C108 75.2222 109 80.6667 109 84.7778C109 88.7778 109.778 95.2222 110.111 97.8889C110.444 100.556 112.667 102.444 112.667 102.444C112.667 102.444 121.444 102.444 122.889 102.444C124.333 102.444 127.111 102 128.556 102C130 102 154 102 154 102C154 102 178 102 179.444 102C180.889 102 183.667 102.444 185.111 102.444C186.556 102.444 195.333 102.444 195.333 102.444C195.333 102.444 197.667 100.556 197.889 97.8889C198.222 95.2222 199 88.7778 199 84.7778C199 80.7778 200 75.3333 198.778 72.4445C198.222 71.1111 194.889 68.6667 194.556 68.1111C194.222 67.6667 194.111 67.1111 193.556 66.8889C193 66.6667 192.778 65.6667 192.778 65.6667L195.667 65.4445C195.667 65.4445 195.556 65.6667 196.444 65.6667C197.333 65.6667 202 65.4444 202.778 65C203.556 64.5556 204 64.2222 204 63.6667C204 63.1111 203.111 60.3333 201.333 60ZM119.444 62.6667C119.889 60.5556 124.111 46.6667 125.333 45.7778C125.333 45.7778 138.667 44.7778 153.889 44.7778C169.111 44.7778 182.444 45.7778 182.444 45.7778C183.778 46.6667 187.889 60.5556 188.333 62.6667C188.778 64.7778 188.111 64.7778 188.111 64.7778H154H119.667C119.667 64.7778 119 64.7778 119.444 62.6667ZM123.111 90.2222C122.333 90.2222 113.667 90.1111 113.667 90.1111C113.667 90.1111 115.556 93.7778 115.889 94.4445C116.222 95.2222 116.222 96.5556 115.111 96.2222C114.111 95.8889 113 93.6667 112.667 92.4445C112.333 91.1111 111.889 87.8889 111.889 87.8889L125 88.8889C125 89 123.889 90.2222 123.111 90.2222ZM124.444 79.7778C121.222 79.7778 117 78.5556 115.778 78.2222C114.556 77.8889 113.667 76.5556 113.667 74.7778C113.667 73 113.667 71.1111 115.667 69.1111C115.667 69.1111 118 69.1111 119.889 70.6667C121.667 72.1111 123.222 73.4445 125.222 74.1111C128.222 75 130.444 78.2222 130.444 78.2222C130.444 78.2222 127.667 79.7778 124.444 79.7778ZM177.556 98.2222C176.444 98.2222 154 98.2222 154 98.2222C154 98.2222 131.667 98.2222 130.444 98.2222C129.333 98.2222 127.667 98 129.111 96.4445C130.222 95.3333 132.111 94.4445 135.778 94.4445C140.333 94.4445 147 94.4445 153.889 94.4445C160.778 94.4445 167.444 94.4445 172 94.4445C175.667 94.4445 177.556 95.3333 178.667 96.4445C180.333 98 178.667 98.2222 177.556 98.2222ZM196.111 88C196.111 88 195.667 91.2222 195.333 92.5556C195 93.8889 193.889 96 192.889 96.3333C191.889 96.6667 191.778 95.2222 192.111 94.5556C192.444 93.8889 194.333 90.2222 194.333 90.2222C194.333 90.2222 185.667 90.3333 184.889 90.3333C184.111 90.3333 183.111 89 183.111 89L196.111 88ZM194.222 74.7778C194.222 76.5556 193.444 77.8889 192.111 78.2222C190.778 78.5556 186.556 79.7778 183.444 79.7778C180.222 79.7778 177.444 78.2222 177.444 78.2222C177.444 78.2222 179.556 75 182.667 74.1111C184.667 73.5556 186.111 72.1111 188 70.6667C190 69.1111 192.222 69.1111 192.222 69.1111C194.222 71.1111 194.222 73 194.222 74.7778Z" fill="white"/>
<path d="M166.435 129.64H157.507V138.376H154.483V129.64H145.555V126.808H154.483V118.024H157.507V126.808H166.435V129.64Z" fill="white"/>
</g>
<defs>
<filter id="filter0_d" x="0" y="0" width="308" height="196.8" filterUnits="userSpaceOnUse" color-interpolation-filters="sRGB">
<feFlood flood-opacity="0" result="BackgroundImageFix"/>
<feColorMatrix in="SourceAlpha" type="matrix" values="0 0 0 0 0 0 0 0 0 0 0 0 0 0 0 0 0 0 127 0"/>
<feOffset dy="4"/>
<feGaussianBlur stdDeviation="2"/>
<feColorMatrix type="matrix" values="0 0 0 0 0 0 0 0 0 0 0 0 0 0 0 0 0 0 0.25 0"/>
<feBlend mode="normal" in2="BackgroundImageFix" result="effect1_dropShadow"/>
<feBlend mode="normal" in="SourceGraphic" in2="effect1_dropShadow" result="shape"/>
</filter>
</defs>
</svg>
