<svg width="302" height="189" viewBox="0 0 302 189" fill="none" xmlns="http://www.w3.org/2000/svg">
<rect width="300" height="188.8" rx="15" fill="#C4C4C4"/>
<path d="M162.435 129.64H153.507V138.376H150.483V129.64H141.555V126.808H150.483V118.024H153.507V126.808H162.435V129.64Z" fill="white"/>
<path d="M200.816 57.312C199.28 56.928 196.112 56.064 195.92 57.312C195.728 58.56 195.344 60.768 195.344 60.768L192.752 60.96C192.752 60.96 192.464 60.672 192.176 59.616C191.888 58.56 189.104 49.248 186.896 46.08C184.688 42.912 183.152 43.296 183.152 43.296V43.392C183.152 43.392 174.512 41.76 159.824 41.76C145.136 41.76 136.496 43.392 136.496 43.392V43.296C136.496 43.296 135.056 42.912 132.752 46.08C130.544 49.248 127.76 58.56 127.472 59.616C127.184 60.672 126.896 60.96 126.896 60.96L124.4 60.768C124.4 60.768 124.112 58.56 123.824 57.312C123.632 56.064 120.464 56.928 118.928 57.312C117.488 57.6 116.72 60 116.72 60.48C116.72 60.96 117.104 61.344 117.776 61.632C118.448 61.92 122.576 62.208 123.248 62.208C124.016 62.208 123.92 62.016 123.92 62.016L126.416 62.208C126.416 62.208 126.224 63.072 125.744 63.264C125.264 63.456 125.168 63.936 124.88 64.32C124.592 64.704 121.712 66.816 121.232 68.064C120.176 70.464 121.04 75.168 121.04 78.72C121.04 82.176 121.712 87.744 122 90.048C122.288 92.352 124.208 93.984 124.208 93.984C124.208 93.984 131.792 93.984 133.04 93.984C134.288 93.984 136.688 93.6 137.936 93.6C139.184 93.6 159.92 93.6 159.92 93.6C159.92 93.6 180.656 93.6 181.904 93.6C183.152 93.6 185.552 93.984 186.8 93.984C188.048 93.984 195.632 93.984 195.632 93.984C195.632 93.984 197.648 92.352 197.84 90.048C198.128 87.744 198.8 82.176 198.8 78.72C198.8 75.264 199.664 70.56 198.608 68.064C198.128 66.912 195.248 64.8 194.96 64.32C194.672 63.936 194.576 63.456 194.096 63.264C193.616 63.072 193.424 62.208 193.424 62.208L195.92 62.016C195.92 62.016 195.824 62.208 196.592 62.208C197.36 62.208 201.392 62.016 202.064 61.632C202.736 61.248 203.12 60.96 203.12 60.48C203.12 60 202.352 57.6 200.816 57.312ZM130.064 59.616C130.448 57.792 134.096 45.792 135.152 45.024C135.152 45.024 146.672 44.16 159.824 44.16C172.976 44.16 184.496 45.024 184.496 45.024C185.648 45.792 189.2 57.792 189.584 59.616C189.968 61.44 189.392 61.44 189.392 61.44H159.92H130.256C130.256 61.44 129.68 61.44 130.064 59.616ZM133.232 83.424C132.56 83.424 125.072 83.328 125.072 83.328C125.072 83.328 126.704 86.496 126.992 87.072C127.28 87.744 127.28 88.896 126.32 88.608C125.456 88.32 124.496 86.4 124.208 85.344C123.92 84.192 123.536 81.408 123.536 81.408L134.864 82.272C134.864 82.368 133.904 83.424 133.232 83.424ZM134.384 74.4C131.6 74.4 127.952 73.344 126.896 73.056C125.84 72.768 125.072 71.616 125.072 70.08C125.072 68.544 125.072 66.912 126.8 65.184C126.8 65.184 128.816 65.184 130.448 66.528C131.984 67.776 133.328 68.928 135.056 69.504C137.648 70.272 139.568 73.056 139.568 73.056C139.568 73.056 137.168 74.4 134.384 74.4ZM180.272 90.336C179.312 90.336 159.92 90.336 159.92 90.336C159.92 90.336 140.624 90.336 139.568 90.336C138.608 90.336 137.168 90.144 138.416 88.8C139.376 87.84 141.008 87.072 144.176 87.072C148.112 87.072 153.872 87.072 159.824 87.072C165.776 87.072 171.536 87.072 175.472 87.072C178.64 87.072 180.272 87.84 181.232 88.8C182.672 90.144 181.232 90.336 180.272 90.336ZM196.304 81.504C196.304 81.504 195.92 84.288 195.632 85.44C195.344 86.592 194.384 88.416 193.52 88.704C192.656 88.992 192.56 87.744 192.848 87.168C193.136 86.592 194.768 83.424 194.768 83.424C194.768 83.424 187.28 83.52 186.608 83.52C185.936 83.52 185.072 82.368 185.072 82.368L196.304 81.504ZM194.672 70.08C194.672 71.616 194 72.768 192.848 73.056C191.696 73.344 188.048 74.4 185.36 74.4C182.576 74.4 180.176 73.056 180.176 73.056C180.176 73.056 182 70.272 184.688 69.504C186.416 69.024 187.664 67.776 189.296 66.528C191.024 65.184 192.944 65.184 192.944 65.184C194.672 66.912 194.672 68.544 194.672 70.08Z" fill="white"/>
<rect x="104.8" y="54.72" width="3.12" height="39.28" fill="white"/>
<path fill-rule="evenodd" clip-rule="evenodd" d="M115.743 48.673C113.419 49.1497 110.826 49.388 107.963 49.388H97.3104C96.4758 47.896 96 46.176 96 44.3448C96 38.6315 100.632 34 106.345 34C112.058 34 116.69 38.6315 116.69 44.3448C116.69 45.8901 116.351 47.3562 115.743 48.673Z" fill="white"/>
</svg>
