<svg width="45" height="45" viewBox="0 0 45 45" fill="none" xmlns="http://www.w3.org/2000/svg">
<g clip-path="url(#clip0)">
<path d="M11.25 33.75C11.25 34.7812 12.0938 35.625 13.125 35.625H15V42.1875C15 43.7438 16.2563 45 17.8125 45C19.3687 45 20.625 43.7438 20.625 42.1875V35.625H24.375V42.1875C24.375 43.7438 25.6313 45 27.1875 45C28.7437 45 30 43.7438 30 42.1875V35.625H31.875C32.9062 35.625 33.75 34.7812 33.75 33.75V15H11.25V33.75ZM6.5625 15C5.00625 15 3.75 16.2563 3.75 17.8125V30.9375C3.75 32.4938 5.00625 33.75 6.5625 33.75C8.11875 33.75 9.375 32.4938 9.375 30.9375V17.8125C9.375 16.2563 8.11875 15 6.5625 15ZM38.4375 15C36.8812 15 35.625 16.2563 35.625 17.8125V30.9375C35.625 32.4938 36.8812 33.75 38.4375 33.75C39.9938 33.75 41.25 32.4938 41.25 30.9375V17.8125C41.25 16.2563 39.9938 15 38.4375 15ZM29.1187 4.05L31.5562 1.6125C31.9312 1.2375 31.9312 0.65625 31.5562 0.28125C31.1812 -0.09375 30.6 -0.09375 30.225 0.28125L27.45 3.05625C25.9688 2.30625 24.2812 1.875 22.5 1.875C20.7 1.875 19.0125 2.30625 17.5125 3.05625L14.7188 0.28125C14.3438 -0.09375 13.7625 -0.09375 13.3875 0.28125C13.0125 0.65625 13.0125 1.2375 13.3875 1.6125L15.8438 4.06875C13.0687 6.1125 11.25 9.39375 11.25 13.125H33.75C33.75 9.39375 31.9312 6.09375 29.1187 4.05ZM18.75 9.375H16.875V7.5H18.75V9.375ZM28.125 9.375H26.25V7.5H28.125V9.375Z" fill="black"/>
</g>
<defs>
<clipPath id="clip0">
<rect width="45" height="45" fill="white"/>
</clipPath>
</defs>
</svg>
