<svg width="585" height="545" viewBox="0 0 585 545" fill="none" xmlns="http://www.w3.org/2000/svg">
<rect x="73" y="254.173" width="289.412" height="149.804" rx="15" transform="rotate(-61.4307 73 254.173)" fill="#C4C4C4"/>
<rect x="91.5981" y="264.3" width="289.412" height="15.6863" transform="rotate(-61.4307 91.5981 264.3)" fill="white"/>
<rect x="107.199" y="193.115" width="289.412" height="149.804" rx="15" transform="rotate(-17.3464 107.199 193.115)" fill="#C4C4C4"/>
<rect x="113.513" y="213.329" width="289.412" height="15.6863" transform="rotate(-17.3464 113.513 213.329)" fill="white"/>
<rect x="167.377" y="219.77" width="289.412" height="149.804" rx="15" transform="rotate(1.71828 167.377 219.77)" fill="#C4C4C4"/>
<rect x="166.743" y="240.937" width="289.412" height="15.6863" transform="rotate(1.71828 166.743 240.937)" fill="white"/>
<path d="M11.376 461.288C9.384 461.288 7.56 461.024 5.904 460.496C4.272 459.968 2.856 459.176 1.656 458.12L2.988 455.384C4.236 456.392 5.532 457.124 6.876 457.58C8.22 458.036 9.732 458.264 11.412 458.264C13.332 458.264 14.82 457.904 15.876 457.184C16.932 456.464 17.46 455.444 17.46 454.124C17.46 453.02 16.968 452.192 15.984 451.64C15 451.064 13.44 450.536 11.304 450.056C9.264 449.624 7.596 449.132 6.3 448.58C5.004 448.004 3.984 447.248 3.24 446.312C2.496 445.352 2.124 444.128 2.124 442.64C2.124 441.152 2.52 439.844 3.312 438.716C4.104 437.564 5.22 436.676 6.66 436.052C8.124 435.404 9.804 435.08 11.7 435.08C13.5 435.08 15.18 435.356 16.74 435.908C18.324 436.46 19.644 437.24 20.7 438.248L19.368 440.984C18.192 440 16.98 439.28 15.732 438.824C14.484 438.344 13.152 438.104 11.736 438.104C9.888 438.104 8.436 438.5 7.38 439.292C6.324 440.06 5.796 441.116 5.796 442.46C5.796 443.612 6.252 444.488 7.164 445.088C8.1 445.688 9.588 446.228 11.628 446.708C13.764 447.188 15.492 447.692 16.812 448.22C18.132 448.748 19.188 449.468 19.98 450.38C20.772 451.292 21.168 452.468 21.168 453.908C21.168 455.396 20.772 456.692 19.98 457.796C19.188 458.9 18.048 459.764 16.56 460.388C15.096 460.988 13.368 461.288 11.376 461.288ZM40.9253 452H27.9653C28.0853 456.248 30.0173 458.372 33.7613 458.372C35.8493 458.372 37.7573 457.688 39.4853 456.32L40.6013 458.912C39.7853 459.632 38.7413 460.208 37.4693 460.64C36.2213 461.048 34.9613 461.252 33.6893 461.252C30.7853 461.252 28.5053 460.424 26.8493 458.768C25.1933 457.088 24.3653 454.796 24.3653 451.892C24.3653 450.044 24.7253 448.4 25.4453 446.96C26.1893 445.52 27.2213 444.404 28.5413 443.612C29.8613 442.82 31.3613 442.424 33.0413 442.424C35.4893 442.424 37.4093 443.216 38.8013 444.8C40.2173 446.384 40.9253 448.58 40.9253 451.388V452ZM33.1133 445.124C31.7453 445.124 30.6293 445.532 29.7653 446.348C28.9013 447.164 28.3493 448.328 28.1093 449.84H37.7213C37.5773 448.304 37.1093 447.14 36.3173 446.348C35.5253 445.532 34.4573 445.124 33.1133 445.124ZM45.0976 434.504H48.6976V461H45.0976V434.504ZM69.5073 452H56.5473C56.6673 456.248 58.5993 458.372 62.3433 458.372C64.4313 458.372 66.3393 457.688 68.0673 456.32L69.1833 458.912C68.3673 459.632 67.3233 460.208 66.0513 460.64C64.8033 461.048 63.5433 461.252 62.2713 461.252C59.3673 461.252 57.0873 460.424 55.4313 458.768C53.7753 457.088 52.9473 454.796 52.9473 451.892C52.9473 450.044 53.3073 448.4 54.0273 446.96C54.7713 445.52 55.8033 444.404 57.1233 443.612C58.4433 442.82 59.9433 442.424 61.6233 442.424C64.0713 442.424 65.9913 443.216 67.3833 444.8C68.7993 446.384 69.5073 448.58 69.5073 451.388V452ZM61.6953 445.124C60.3273 445.124 59.2113 445.532 58.3473 446.348C57.4833 447.164 56.9313 448.328 56.6913 449.84H66.3033C66.1593 448.304 65.6913 447.14 64.8993 446.348C64.1073 445.532 63.0393 445.124 61.6953 445.124ZM81.5636 461.252C79.7396 461.252 78.1436 460.868 76.7756 460.1C75.4316 459.332 74.3996 458.252 73.6796 456.86C72.9596 455.444 72.5996 453.8 72.5996 451.928C72.5996 450.056 72.9716 448.4 73.7156 446.96C74.4836 445.52 75.5516 444.404 76.9196 443.612C78.2876 442.82 79.8836 442.424 81.7076 442.424C82.9796 442.424 84.2036 442.64 85.3796 443.072C86.5556 443.48 87.5036 444.044 88.2236 444.764L87.1076 447.392C85.4036 446.048 83.6876 445.376 81.9596 445.376C80.2076 445.376 78.8396 445.952 77.8556 447.104C76.8716 448.232 76.3796 449.828 76.3796 451.892C76.3796 453.956 76.8716 455.552 77.8556 456.68C78.8396 457.784 80.2076 458.336 81.9596 458.336C83.7356 458.336 85.4516 457.664 87.1076 456.32L88.2236 458.948C87.4556 459.668 86.4716 460.232 85.2716 460.64C84.0956 461.048 82.8596 461.252 81.5636 461.252ZM99.5285 461.252C97.7045 461.252 96.1085 460.868 94.7405 460.1C93.3965 459.332 92.3645 458.252 91.6445 456.86C90.9245 455.444 90.5645 453.8 90.5645 451.928C90.5645 450.056 90.9365 448.4 91.6805 446.96C92.4485 445.52 93.5165 444.404 94.8845 443.612C96.2525 442.82 97.8485 442.424 99.6725 442.424C100.944 442.424 102.168 442.64 103.344 443.072C104.52 443.48 105.468 444.044 106.188 444.764L105.072 447.392C103.368 446.048 101.652 445.376 99.9245 445.376C98.1725 445.376 96.8045 445.952 95.8205 447.104C94.8365 448.232 94.3445 449.828 94.3445 451.892C94.3445 453.956 94.8365 455.552 95.8205 456.68C96.8045 457.784 98.1725 458.336 99.9245 458.336C101.7 458.336 103.416 457.664 105.072 456.32L106.188 458.948C105.42 459.668 104.436 460.232 103.236 460.64C102.06 461.048 100.824 461.252 99.5285 461.252ZM109.609 442.856H113.209V461H109.609V442.856ZM113.497 434.936V438.752H109.285V434.936H113.497ZM126.351 461.252C124.575 461.252 123.015 460.868 121.671 460.1C120.327 459.332 119.283 458.24 118.539 456.824C117.819 455.408 117.459 453.752 117.459 451.856C117.459 449.96 117.819 448.304 118.539 446.888C119.283 445.448 120.327 444.344 121.671 443.576C123.015 442.808 124.575 442.424 126.351 442.424C128.103 442.424 129.651 442.808 130.995 443.576C132.339 444.344 133.371 445.448 134.091 446.888C134.835 448.304 135.207 449.96 135.207 451.856C135.207 453.752 134.835 455.408 134.091 456.824C133.371 458.24 132.339 459.332 130.995 460.1C129.651 460.868 128.103 461.252 126.351 461.252ZM126.315 458.372C127.995 458.372 129.279 457.82 130.167 456.716C131.055 455.612 131.499 453.992 131.499 451.856C131.499 449.768 131.043 448.16 130.131 447.032C129.243 445.904 127.983 445.34 126.351 445.34C124.695 445.34 123.411 445.904 122.499 447.032C121.587 448.16 121.131 449.768 121.131 451.856C121.131 453.992 121.575 455.612 122.463 456.716C123.375 457.82 124.659 458.372 126.315 458.372ZM149.105 442.424C153.449 442.424 155.621 444.848 155.621 449.696V461H151.985V449.912C151.985 448.328 151.673 447.176 151.049 446.456C150.449 445.736 149.477 445.376 148.133 445.376C146.597 445.376 145.361 445.856 144.425 446.816C143.513 447.776 143.057 449.06 143.057 450.668V461H139.457V447.968C139.457 446.072 139.361 444.368 139.169 442.856H142.553L142.877 445.988C143.453 444.836 144.281 443.96 145.361 443.36C146.465 442.736 147.713 442.424 149.105 442.424ZM177.393 442.856V461H173.793V457.904C173.265 458.984 172.473 459.812 171.417 460.388C170.385 460.964 169.173 461.252 167.781 461.252C166.173 461.252 164.757 460.868 163.533 460.1C162.333 459.332 161.397 458.252 160.725 456.86C160.053 455.444 159.717 453.8 159.717 451.928C159.717 450.056 160.053 448.4 160.725 446.96C161.421 445.52 162.381 444.404 163.605 443.612C164.829 442.82 166.221 442.424 167.781 442.424C169.173 442.424 170.385 442.724 171.417 443.324C172.449 443.9 173.241 444.728 173.793 445.808V442.856H177.393ZM168.645 458.372C170.277 458.372 171.537 457.808 172.425 456.68C173.337 455.528 173.793 453.92 173.793 451.856C173.793 449.768 173.337 448.16 172.425 447.032C171.537 445.904 170.265 445.34 168.609 445.34C166.977 445.34 165.693 445.928 164.757 447.104C163.845 448.256 163.389 449.864 163.389 451.928C163.389 453.968 163.845 455.552 164.757 456.68C165.693 457.808 166.989 458.372 168.645 458.372ZM208.1 442.856V461H204.572V457.976C203.996 459.032 203.204 459.848 202.196 460.424C201.188 460.976 200.048 461.252 198.776 461.252C194.408 461.252 192.224 458.828 192.224 453.98V442.856H195.824V453.944C195.824 455.432 196.124 456.536 196.724 457.256C197.348 457.952 198.284 458.3 199.532 458.3C201.02 458.3 202.208 457.82 203.096 456.86C204.008 455.9 204.464 454.628 204.464 453.044V442.856H208.1ZM223.074 442.424C227.418 442.424 229.59 444.848 229.59 449.696V461H225.954V449.912C225.954 448.328 225.642 447.176 225.018 446.456C224.418 445.736 223.446 445.376 222.102 445.376C220.566 445.376 219.33 445.856 218.394 446.816C217.482 447.776 217.026 449.06 217.026 450.668V461H213.426V447.968C213.426 446.072 213.33 444.368 213.138 442.856H216.522L216.846 445.988C217.422 444.836 218.25 443.96 219.33 443.36C220.434 442.736 221.682 442.424 223.074 442.424ZM265.063 442.424C269.095 442.424 271.111 444.848 271.111 449.696V461H267.475V449.876C267.475 448.316 267.199 447.176 266.647 446.456C266.119 445.736 265.255 445.376 264.055 445.376C262.663 445.376 261.559 445.856 260.743 446.816C259.951 447.776 259.555 449.084 259.555 450.74V461H255.919V449.876C255.919 448.316 255.643 447.176 255.091 446.456C254.563 445.736 253.699 445.376 252.499 445.376C251.107 445.376 250.003 445.856 249.187 446.816C248.371 447.776 247.963 449.084 247.963 450.74V461H244.363V447.968C244.363 446.072 244.267 444.368 244.075 442.856H247.459L247.783 445.88C248.311 444.776 249.067 443.924 250.051 443.324C251.035 442.724 252.187 442.424 253.507 442.424C256.315 442.424 258.151 443.588 259.015 445.916C259.567 444.836 260.371 443.984 261.427 443.36C262.507 442.736 263.719 442.424 265.063 442.424ZM291.8 452H278.84C278.96 456.248 280.892 458.372 284.636 458.372C286.724 458.372 288.632 457.688 290.36 456.32L291.476 458.912C290.66 459.632 289.616 460.208 288.344 460.64C287.096 461.048 285.836 461.252 284.564 461.252C281.66 461.252 279.38 460.424 277.724 458.768C276.068 457.088 275.24 454.796 275.24 451.892C275.24 450.044 275.6 448.4 276.32 446.96C277.064 445.52 278.096 444.404 279.416 443.612C280.736 442.82 282.236 442.424 283.916 442.424C286.364 442.424 288.284 443.216 289.676 444.8C291.092 446.384 291.8 448.58 291.8 451.388V452ZM283.988 445.124C282.62 445.124 281.504 445.532 280.64 446.348C279.776 447.164 279.224 448.328 278.984 449.84H288.596C288.452 448.304 287.984 447.14 287.192 446.348C286.4 445.532 285.332 445.124 283.988 445.124ZM282.692 440.516L286.292 433.136H290.216L285.104 440.516H282.692ZM300.513 445.664V454.772C300.513 456.02 300.777 456.908 301.305 457.436C301.857 457.94 302.613 458.192 303.573 458.192C304.197 458.192 304.833 458.096 305.481 457.904V460.856C304.689 461.12 303.789 461.252 302.781 461.252C300.909 461.252 299.457 460.724 298.425 459.668C297.393 458.612 296.877 457.076 296.877 455.06V445.664H293.349V442.856H296.877V438.32L300.513 437.06V442.856H305.517V445.664H300.513ZM316.687 461.252C314.911 461.252 313.351 460.868 312.007 460.1C310.663 459.332 309.619 458.24 308.875 456.824C308.155 455.408 307.795 453.752 307.795 451.856C307.795 449.96 308.155 448.304 308.875 446.888C309.619 445.448 310.663 444.344 312.007 443.576C313.351 442.808 314.911 442.424 316.687 442.424C318.439 442.424 319.987 442.808 321.331 443.576C322.675 444.344 323.707 445.448 324.427 446.888C325.171 448.304 325.543 449.96 325.543 451.856C325.543 453.752 325.171 455.408 324.427 456.824C323.707 458.24 322.675 459.332 321.331 460.1C319.987 460.868 318.439 461.252 316.687 461.252ZM316.651 458.372C318.331 458.372 319.615 457.82 320.503 456.716C321.391 455.612 321.835 453.992 321.835 451.856C321.835 449.768 321.379 448.16 320.467 447.032C319.579 445.904 318.319 445.34 316.687 445.34C315.031 445.34 313.747 445.904 312.835 447.032C311.923 448.16 311.467 449.768 311.467 451.856C311.467 453.992 311.911 455.612 312.799 456.716C313.711 457.82 314.995 458.372 316.651 458.372ZM346.389 434.504V461H342.789V457.904C342.261 458.984 341.469 459.812 340.413 460.388C339.381 460.964 338.169 461.252 336.777 461.252C335.217 461.252 333.825 460.856 332.601 460.064C331.377 459.272 330.417 458.168 329.721 456.752C329.049 455.312 328.713 453.656 328.713 451.784C328.713 449.912 329.049 448.268 329.721 446.852C330.393 445.436 331.329 444.344 332.529 443.576C333.753 442.808 335.169 442.424 336.777 442.424C338.145 442.424 339.345 442.712 340.377 443.288C341.433 443.864 342.225 444.68 342.753 445.736V434.504H346.389ZM337.605 458.372C339.261 458.372 340.533 457.808 341.421 456.68C342.333 455.528 342.789 453.92 342.789 451.856C342.789 449.792 342.333 448.196 341.421 447.068C340.533 445.916 339.273 445.34 337.641 445.34C335.985 445.34 334.689 445.904 333.753 447.032C332.841 448.16 332.385 449.744 332.385 451.784C332.385 453.848 332.841 455.468 333.753 456.644C334.689 457.796 335.973 458.372 337.605 458.372ZM359.542 461.252C357.766 461.252 356.206 460.868 354.862 460.1C353.518 459.332 352.474 458.24 351.73 456.824C351.01 455.408 350.65 453.752 350.65 451.856C350.65 449.96 351.01 448.304 351.73 446.888C352.474 445.448 353.518 444.344 354.862 443.576C356.206 442.808 357.766 442.424 359.542 442.424C361.294 442.424 362.842 442.808 364.186 443.576C365.53 444.344 366.562 445.448 367.282 446.888C368.026 448.304 368.398 449.96 368.398 451.856C368.398 453.752 368.026 455.408 367.282 456.824C366.562 458.24 365.53 459.332 364.186 460.1C362.842 460.868 361.294 461.252 359.542 461.252ZM359.506 458.372C361.186 458.372 362.47 457.82 363.358 456.716C364.246 455.612 364.69 453.992 364.69 451.856C364.69 449.768 364.234 448.16 363.322 447.032C362.434 445.904 361.174 445.34 359.542 445.34C357.886 445.34 356.602 445.904 355.69 447.032C354.778 448.16 354.322 449.768 354.322 451.856C354.322 453.992 354.766 455.612 355.654 456.716C356.566 457.82 357.85 458.372 359.506 458.372ZM391.858 442.424C393.418 442.424 394.81 442.82 396.034 443.612C397.258 444.404 398.206 445.52 398.878 446.96C399.574 448.4 399.922 450.056 399.922 451.928C399.922 453.8 399.586 455.444 398.914 456.86C398.242 458.252 397.294 459.332 396.07 460.1C394.846 460.868 393.442 461.252 391.858 461.252C390.466 461.252 389.242 460.964 388.186 460.388C387.154 459.788 386.374 458.936 385.846 457.832V468.776H382.246V447.968C382.246 446.072 382.15 444.368 381.958 442.856H385.342L385.702 446.204C386.182 445.004 386.962 444.08 388.042 443.432C389.122 442.76 390.394 442.424 391.858 442.424ZM391.03 458.372C392.662 458.372 393.934 457.808 394.846 456.68C395.758 455.552 396.214 453.968 396.214 451.928C396.214 449.864 395.758 448.256 394.846 447.104C393.934 445.928 392.662 445.34 391.03 445.34C389.35 445.34 388.066 445.904 387.178 447.032C386.29 448.16 385.846 449.768 385.846 451.856C385.846 453.944 386.29 455.552 387.178 456.68C388.09 457.808 389.374 458.372 391.03 458.372ZM420.78 442.856V461H417.18V457.904C416.652 458.984 415.86 459.812 414.804 460.388C413.772 460.964 412.56 461.252 411.168 461.252C409.56 461.252 408.144 460.868 406.92 460.1C405.72 459.332 404.784 458.252 404.112 456.86C403.44 455.444 403.104 453.8 403.104 451.928C403.104 450.056 403.44 448.4 404.112 446.96C404.808 445.52 405.768 444.404 406.992 443.612C408.216 442.82 409.608 442.424 411.168 442.424C412.56 442.424 413.772 442.724 414.804 443.324C415.836 443.9 416.628 444.728 417.18 445.808V442.856H420.78ZM412.032 458.372C413.664 458.372 414.924 457.808 415.812 456.68C416.724 455.528 417.18 453.92 417.18 451.856C417.18 449.768 416.724 448.16 415.812 447.032C414.924 445.904 413.652 445.34 411.996 445.34C410.364 445.34 409.08 445.928 408.144 447.104C407.232 448.256 406.776 449.864 406.776 451.928C406.776 453.968 407.232 455.552 408.144 456.68C409.08 457.808 410.376 458.372 412.032 458.372ZM435.157 442.424C435.709 442.424 436.285 442.508 436.885 442.676L436.813 445.988C436.165 445.748 435.457 445.628 434.689 445.628C433.033 445.628 431.785 446.132 430.945 447.14C430.129 448.124 429.721 449.372 429.721 450.884V461H426.121V447.968C426.121 446.072 426.025 444.368 425.833 442.856H429.217L429.541 446.132C430.021 444.932 430.765 444.02 431.773 443.396C432.781 442.748 433.909 442.424 435.157 442.424ZM455.901 442.856V461H452.301V457.904C451.773 458.984 450.981 459.812 449.925 460.388C448.893 460.964 447.681 461.252 446.289 461.252C444.681 461.252 443.265 460.868 442.041 460.1C440.841 459.332 439.905 458.252 439.233 456.86C438.561 455.444 438.225 453.8 438.225 451.928C438.225 450.056 438.561 448.4 439.233 446.96C439.929 445.52 440.889 444.404 442.113 443.612C443.337 442.82 444.729 442.424 446.289 442.424C447.681 442.424 448.893 442.724 449.925 443.324C450.957 443.9 451.749 444.728 452.301 445.808V442.856H455.901ZM447.153 458.372C448.785 458.372 450.045 457.808 450.933 456.68C451.845 455.528 452.301 453.92 452.301 451.856C452.301 449.768 451.845 448.16 450.933 447.032C450.045 445.904 448.773 445.34 447.117 445.34C445.485 445.34 444.201 445.928 443.265 447.104C442.353 448.256 441.897 449.864 441.897 451.928C441.897 453.968 442.353 455.552 443.265 456.68C444.201 457.808 445.497 458.372 447.153 458.372ZM475.556 445.664V454.772C475.556 456.02 475.82 456.908 476.348 457.436C476.9 457.94 477.656 458.192 478.616 458.192C479.24 458.192 479.876 458.096 480.524 457.904V460.856C479.732 461.12 478.832 461.252 477.824 461.252C475.952 461.252 474.5 460.724 473.468 459.668C472.436 458.612 471.92 457.076 471.92 455.06V445.664H468.392V442.856H471.92V438.32L475.556 437.06V442.856H480.56V445.664H475.556ZM499.398 452H486.438C486.558 456.248 488.49 458.372 492.234 458.372C494.322 458.372 496.23 457.688 497.958 456.32L499.074 458.912C498.258 459.632 497.214 460.208 495.942 460.64C494.694 461.048 493.434 461.252 492.162 461.252C489.258 461.252 486.978 460.424 485.322 458.768C483.666 457.088 482.838 454.796 482.838 451.892C482.838 450.044 483.198 448.4 483.918 446.96C484.662 445.52 485.694 444.404 487.014 443.612C488.334 442.82 489.834 442.424 491.514 442.424C493.962 442.424 495.882 443.216 497.274 444.8C498.69 446.384 499.398 448.58 499.398 451.388V452ZM491.586 445.124C490.218 445.124 489.102 445.532 488.238 446.348C487.374 447.164 486.822 448.328 486.582 449.84H496.194C496.05 448.304 495.582 447.14 494.79 446.348C493.998 445.532 492.93 445.124 491.586 445.124ZM513.218 442.424C517.562 442.424 519.734 444.848 519.734 449.696V461H516.098V449.912C516.098 448.328 515.786 447.176 515.162 446.456C514.562 445.736 513.59 445.376 512.246 445.376C510.71 445.376 509.474 445.856 508.538 446.816C507.626 447.776 507.17 449.06 507.17 450.668V461H503.57V447.968C503.57 446.072 503.474 444.368 503.282 442.856H506.666L506.99 445.988C507.566 444.836 508.394 443.96 509.474 443.36C510.578 442.736 511.826 442.424 513.218 442.424ZM540.39 452H527.43C527.55 456.248 529.482 458.372 533.226 458.372C535.314 458.372 537.222 457.688 538.95 456.32L540.066 458.912C539.25 459.632 538.206 460.208 536.934 460.64C535.686 461.048 534.426 461.252 533.154 461.252C530.25 461.252 527.97 460.424 526.314 458.768C524.658 457.088 523.83 454.796 523.83 451.892C523.83 450.044 524.19 448.4 524.91 446.96C525.654 445.52 526.686 444.404 528.006 443.612C529.326 442.82 530.826 442.424 532.506 442.424C534.954 442.424 536.874 443.216 538.266 444.8C539.682 446.384 540.39 448.58 540.39 451.388V452ZM532.578 445.124C531.21 445.124 530.094 445.532 529.23 446.348C528.366 447.164 527.814 448.328 527.574 449.84H537.186C537.042 448.304 536.574 447.14 535.782 446.348C534.99 445.532 533.922 445.124 532.578 445.124ZM553.598 442.424C554.15 442.424 554.726 442.508 555.326 442.676L555.254 445.988C554.606 445.748 553.898 445.628 553.13 445.628C551.474 445.628 550.226 446.132 549.386 447.14C548.57 448.124 548.162 449.372 548.162 450.884V461H544.562V447.968C544.562 446.072 544.466 444.368 544.274 442.856H547.658L547.982 446.132C548.462 444.932 549.206 444.02 550.214 443.396C551.222 442.748 552.35 442.424 553.598 442.424ZM23.364 487.424C27.396 487.424 29.412 489.848 29.412 494.696V506H25.776V494.876C25.776 493.316 25.5 492.176 24.948 491.456C24.42 490.736 23.556 490.376 22.356 490.376C20.964 490.376 19.86 490.856 19.044 491.816C18.252 492.776 17.856 494.084 17.856 495.74V506H14.22V494.876C14.22 493.316 13.944 492.176 13.392 491.456C12.864 490.736 12 490.376 10.8 490.376C9.408 490.376 8.304 490.856 7.488 491.816C6.672 492.776 6.264 494.084 6.264 495.74V506H2.664V492.968C2.664 491.072 2.568 489.368 2.376 487.856H5.76L6.084 490.88C6.612 489.776 7.368 488.924 8.352 488.324C9.336 487.724 10.488 487.424 11.808 487.424C14.616 487.424 16.452 488.588 17.316 490.916C17.868 489.836 18.672 488.984 19.728 488.36C20.808 487.736 22.02 487.424 23.364 487.424ZM51.217 487.856V506H47.617V502.904C47.089 503.984 46.297 504.812 45.241 505.388C44.209 505.964 42.997 506.252 41.605 506.252C39.997 506.252 38.581 505.868 37.357 505.1C36.157 504.332 35.221 503.252 34.549 501.86C33.877 500.444 33.541 498.8 33.541 496.928C33.541 495.056 33.877 493.4 34.549 491.96C35.245 490.52 36.205 489.404 37.429 488.612C38.653 487.82 40.045 487.424 41.605 487.424C42.997 487.424 44.209 487.724 45.241 488.324C46.273 488.9 47.065 489.728 47.617 490.808V487.856H51.217ZM42.469 503.372C44.101 503.372 45.361 502.808 46.249 501.68C47.161 500.528 47.617 498.92 47.617 496.856C47.617 494.768 47.161 493.16 46.249 492.032C45.361 490.904 44.089 490.34 42.433 490.34C40.801 490.34 39.517 490.928 38.581 492.104C37.669 493.256 37.213 494.864 37.213 496.928C37.213 498.968 37.669 500.552 38.581 501.68C39.517 502.808 40.813 503.372 42.469 503.372ZM41.713 485.516L45.313 478.136H49.237L44.125 485.516H41.713ZM62.8945 506.252C59.7265 506.252 57.2305 505.484 55.4065 503.948L56.4865 501.32C58.3825 502.76 60.5545 503.48 63.0025 503.48C64.2505 503.48 65.1985 503.276 65.8465 502.868C66.4945 502.436 66.8185 501.836 66.8185 501.068C66.8185 500.42 66.5905 499.916 66.1345 499.556C65.7025 499.172 64.9585 498.848 63.9025 498.584L60.8785 497.864C59.2945 497.528 58.0825 496.94 57.2425 496.1C56.4265 495.236 56.0185 494.168 56.0185 492.896C56.0185 491.264 56.6665 489.944 57.9625 488.936C59.2825 487.928 61.0225 487.424 63.1825 487.424C64.4785 487.424 65.7025 487.628 66.8545 488.036C68.0305 488.444 69.0265 489.02 69.8425 489.764L68.7265 492.32C66.9745 490.928 65.1265 490.232 63.1825 490.232C62.0065 490.232 61.0945 490.46 60.4465 490.916C59.7985 491.348 59.4745 491.96 59.4745 492.752C59.4745 493.376 59.6785 493.88 60.0865 494.264C60.4945 494.648 61.1425 494.948 62.0305 495.164L65.1265 495.92C66.8545 496.304 68.1265 496.916 68.9425 497.756C69.7825 498.572 70.2025 499.64 70.2025 500.96C70.2025 502.592 69.5425 503.888 68.2225 504.848C66.9265 505.784 65.1505 506.252 62.8945 506.252ZM84.0859 487.856H87.6859V506H84.0859V487.856ZM87.9739 479.936V483.752H83.7619V479.936H87.9739ZM102.664 487.424C107.008 487.424 109.18 489.848 109.18 494.696V506H105.544V494.912C105.544 493.328 105.232 492.176 104.608 491.456C104.008 490.736 103.036 490.376 101.692 490.376C100.156 490.376 98.9196 490.856 97.9836 491.816C97.0716 492.776 96.6156 494.06 96.6156 495.668V506H93.0156V492.968C93.0156 491.072 92.9196 489.368 92.7276 487.856H96.1116L96.4356 490.988C97.0116 489.836 97.8396 488.96 98.9196 488.36C100.024 487.736 101.272 487.424 102.664 487.424ZM122.023 482.42C120.031 482.42 119.035 483.56 119.035 485.84V487.856H123.283V490.664H119.035V506H115.399V490.664H111.907V487.856H115.399V485.552C115.399 483.536 115.903 482 116.911 480.944C117.943 479.888 119.383 479.36 121.231 479.36C122.191 479.36 123.067 479.48 123.859 479.72V482.708C123.211 482.516 122.599 482.42 122.023 482.42ZM134.613 506.252C132.837 506.252 131.277 505.868 129.933 505.1C128.589 504.332 127.545 503.24 126.801 501.824C126.081 500.408 125.721 498.752 125.721 496.856C125.721 494.96 126.081 493.304 126.801 491.888C127.545 490.448 128.589 489.344 129.933 488.576C131.277 487.808 132.837 487.424 134.613 487.424C136.365 487.424 137.913 487.808 139.257 488.576C140.601 489.344 141.633 490.448 142.353 491.888C143.097 493.304 143.469 494.96 143.469 496.856C143.469 498.752 143.097 500.408 142.353 501.824C141.633 503.24 140.601 504.332 139.257 505.1C137.913 505.868 136.365 506.252 134.613 506.252ZM134.577 503.372C136.257 503.372 137.541 502.82 138.429 501.716C139.317 500.612 139.761 498.992 139.761 496.856C139.761 494.768 139.305 493.16 138.393 492.032C137.505 490.904 136.245 490.34 134.613 490.34C132.957 490.34 131.673 490.904 130.761 492.032C129.849 493.16 129.393 494.768 129.393 496.856C129.393 498.992 129.837 500.612 130.725 501.716C131.637 502.82 132.921 503.372 134.577 503.372ZM156.755 487.424C157.307 487.424 157.883 487.508 158.483 487.676L158.411 490.988C157.763 490.748 157.055 490.628 156.287 490.628C154.631 490.628 153.383 491.132 152.543 492.14C151.727 493.124 151.319 494.372 151.319 495.884V506H147.719V492.968C147.719 491.072 147.623 489.368 147.431 487.856H150.815L151.139 491.132C151.619 489.932 152.363 489.02 153.371 488.396C154.379 487.748 155.507 487.424 156.755 487.424ZM181.954 487.424C185.986 487.424 188.002 489.848 188.002 494.696V506H184.366V494.876C184.366 493.316 184.09 492.176 183.538 491.456C183.01 490.736 182.146 490.376 180.946 490.376C179.554 490.376 178.45 490.856 177.634 491.816C176.842 492.776 176.446 494.084 176.446 495.74V506H172.81V494.876C172.81 493.316 172.534 492.176 171.982 491.456C171.454 490.736 170.59 490.376 169.39 490.376C167.998 490.376 166.894 490.856 166.078 491.816C165.262 492.776 164.854 494.084 164.854 495.74V506H161.254V492.968C161.254 491.072 161.158 489.368 160.966 487.856H164.35L164.674 490.88C165.202 489.776 165.958 488.924 166.942 488.324C167.926 487.724 169.078 487.424 170.398 487.424C173.206 487.424 175.042 488.588 175.906 490.916C176.458 489.836 177.262 488.984 178.318 488.36C179.398 487.736 180.61 487.424 181.954 487.424ZM209.807 487.856V506H206.207V502.904C205.679 503.984 204.887 504.812 203.831 505.388C202.799 505.964 201.587 506.252 200.195 506.252C198.587 506.252 197.171 505.868 195.947 505.1C194.747 504.332 193.811 503.252 193.139 501.86C192.467 500.444 192.131 498.8 192.131 496.928C192.131 495.056 192.467 493.4 193.139 491.96C193.835 490.52 194.795 489.404 196.019 488.612C197.243 487.82 198.635 487.424 200.195 487.424C201.587 487.424 202.799 487.724 203.831 488.324C204.863 488.9 205.655 489.728 206.207 490.808V487.856H209.807ZM201.059 503.372C202.691 503.372 203.951 502.808 204.839 501.68C205.751 500.528 206.207 498.92 206.207 496.856C206.207 494.768 205.751 493.16 204.839 492.032C203.951 490.904 202.679 490.34 201.023 490.34C199.391 490.34 198.107 490.928 197.171 492.104C196.259 493.256 195.803 494.864 195.803 496.928C195.803 498.968 196.259 500.552 197.171 501.68C198.107 502.808 199.403 503.372 201.059 503.372ZM223.032 506.252C221.208 506.252 219.612 505.868 218.244 505.1C216.9 504.332 215.868 503.252 215.148 501.86C214.428 500.444 214.068 498.8 214.068 496.928C214.068 495.056 214.44 493.4 215.184 491.96C215.952 490.52 217.02 489.404 218.388 488.612C219.756 487.82 221.352 487.424 223.176 487.424C224.448 487.424 225.672 487.64 226.848 488.072C228.024 488.48 228.972 489.044 229.692 489.764L228.576 492.392C226.872 491.048 225.156 490.376 223.428 490.376C221.676 490.376 220.308 490.952 219.324 492.104C218.34 493.232 217.848 494.828 217.848 496.892C217.848 498.956 218.34 500.552 219.324 501.68C220.308 502.784 221.676 503.336 223.428 503.336C225.204 503.336 226.92 502.664 228.576 501.32L229.692 503.948C228.924 504.668 227.94 505.232 226.74 505.64C225.564 506.048 224.328 506.252 223.032 506.252ZM233.113 487.856H236.713V506H233.113V487.856ZM237.001 479.936V483.752H232.789V479.936H237.001ZM249.855 506.252C248.079 506.252 246.519 505.868 245.175 505.1C243.831 504.332 242.787 503.24 242.043 501.824C241.323 500.408 240.963 498.752 240.963 496.856C240.963 494.96 241.323 493.304 242.043 491.888C242.787 490.448 243.831 489.344 245.175 488.576C246.519 487.808 248.079 487.424 249.855 487.424C251.607 487.424 253.155 487.808 254.499 488.576C255.843 489.344 256.875 490.448 257.595 491.888C258.339 493.304 258.711 494.96 258.711 496.856C258.711 498.752 258.339 500.408 257.595 501.824C256.875 503.24 255.843 504.332 254.499 505.1C253.155 505.868 251.607 506.252 249.855 506.252ZM249.819 503.372C251.499 503.372 252.783 502.82 253.671 501.716C254.559 500.612 255.003 498.992 255.003 496.856C255.003 494.768 254.547 493.16 253.635 492.032C252.747 490.904 251.487 490.34 249.855 490.34C248.199 490.34 246.915 490.904 246.003 492.032C245.091 493.16 244.635 494.768 244.635 496.856C244.635 498.992 245.079 500.612 245.967 501.716C246.879 502.82 248.163 503.372 249.819 503.372ZM248.631 485.516L252.231 478.136H256.155L251.043 485.516H248.631ZM272.609 487.424C276.953 487.424 279.125 489.848 279.125 494.696V506H275.489V494.912C275.489 493.328 275.177 492.176 274.553 491.456C273.953 490.736 272.981 490.376 271.637 490.376C270.101 490.376 268.865 490.856 267.929 491.816C267.017 492.776 266.561 494.06 266.561 495.668V506H262.961V492.968C262.961 491.072 262.865 489.368 262.673 487.856H266.057L266.381 490.988C266.957 489.836 267.785 488.96 268.865 488.36C269.969 487.736 271.217 487.424 272.609 487.424Z" fill="black"/>
</svg>
