<svg width="50" height="50" viewBox="0 0 50 50" fill="none" xmlns="http://www.w3.org/2000/svg">
<path d="M38.8889 0H5.55556C2.47222 0 0 2.5 0 5.55556V44.4444C0 47.5 2.47222 50 5.55556 50H44.4444C47.5 50 50 47.5 50 44.4444V11.1111L38.8889 0ZM25 44.4444C20.3889 44.4444 16.6667 40.7222 16.6667 36.1111C16.6667 31.5 20.3889 27.7778 25 27.7778C29.6111 27.7778 33.3333 31.5 33.3333 36.1111C33.3333 40.7222 29.6111 44.4444 25 44.4444ZM33.3333 16.6667H5.55556V5.55556H33.3333V16.6667Z" fill="white"/>
</svg>
