<svg width="100" height="96" viewBox="0 0 100 96" fill="none" xmlns="http://www.w3.org/2000/svg">
<ellipse cx="50" cy="47.7679" rx="50" ry="47.7679" fill="#0B768C"/>
<path d="M63.8889 23H30.5556C27.4722 23 25 25.5 25 28.5556V67.4444C25 70.5 27.4722 73 30.5556 73H69.4444C72.5 73 75 70.5 75 67.4444V34.1111L63.8889 23ZM50 67.4444C45.3889 67.4444 41.6667 63.7222 41.6667 59.1111C41.6667 54.5 45.3889 50.7778 50 50.7778C54.6111 50.7778 58.3333 54.5 58.3333 59.1111C58.3333 63.7222 54.6111 67.4444 50 67.4444ZM58.3333 39.6667H30.5556V28.5556H58.3333V39.6667Z" fill="white"/>
</svg>
