<svg width="71" height="83" viewBox="0 0 71 83" fill="none" xmlns="http://www.w3.org/2000/svg">
<path d="M32.3225 1.20896C31.0515 1.2961 30.1531 1.42681 28.5972 1.75359C18.9552 3.80135 10.9568 10.2823 7.07808 19.1923C5.36882 23.1027 4.6895 26.4793 4.67854 31.0432C4.66759 35.3348 5.10586 37.7965 6.59598 41.7722C9.29135 48.9394 14.4849 57.4355 21.1356 65.5721C24.7623 70.0053 27.5235 73.0661 32.213 77.8587L34.7002 80.3857L37.4832 77.5755C44.3531 70.6479 49.2617 64.8205 53.9731 58.0563C59.1119 50.6713 63.1221 42.5783 64.2177 37.3608C65.0505 33.4286 65.0614 28.8321 64.2616 25.0633C62.64 17.4713 58.1586 10.7398 51.8256 6.40463C48.3633 4.03009 43.6957 2.13482 39.9923 1.59019C37.6585 1.25253 34.2838 1.07825 32.3225 1.20896ZM38.9514 15.576C43.9367 15.9899 47.9907 18.31 50.7299 22.3293C53.7869 26.8279 54.1813 32.688 51.7599 37.5024C49.6343 41.7069 45.887 44.626 41.1975 45.7044C40.4963 45.8678 39.6307 45.9004 35.3685 45.9331L30.3503 45.9767V49.789V53.5905H26.5154H22.6805V34.5288V15.4671H30.164C34.2728 15.4671 38.2282 15.5216 38.9514 15.576ZM39.1157 72.1511C39.1157 72.1729 39.0281 72.26 38.9295 72.3363C38.7542 72.4779 38.7432 72.467 38.8856 72.2927C39.0281 72.1184 39.1157 72.064 39.1157 72.1511Z" fill="#11DD31"/>
<path d="M30.3503 30.7819V38.4719L34.7659 38.4175C39.7293 38.363 39.7731 38.363 41.4934 37.5243C43.3012 36.642 44.6599 35.019 45.3282 32.9495C45.7227 31.7295 45.7446 29.8343 45.3611 28.7014C44.2983 25.4882 41.9426 23.5711 38.6227 23.2008C38.0858 23.1463 35.9931 23.0919 33.9989 23.0919H30.3503V30.7819Z" fill="#11DD31"/>
</svg>
