<svg width="150" height="150" viewBox="0 0 150 150" fill="none" xmlns="http://www.w3.org/2000/svg">
<path d="M56.25 18.75L44.8125 31.25H25C18.125 31.25 12.5 36.875 12.5 43.75V118.75C12.5 125.625 18.125 131.25 25 131.25H125C131.875 131.25 137.5 125.625 137.5 118.75V43.75C137.5 36.875 131.875 31.25 125 31.25H105.188L93.75 18.75H56.25ZM75 112.5C57.75 112.5 43.75 98.5 43.75 81.25C43.75 64 57.75 50 75 50C92.25 50 106.25 64 106.25 81.25C106.25 98.5 92.25 112.5 75 112.5Z" fill="#077187"/>
<path d="M75 106.25L82.8125 89.0625L100 81.25L82.8125 73.4375L75 56.25L67.1875 73.4375L50 81.25L67.1875 89.0625L75 106.25Z" fill="#077187"/>
</svg>
