<svg width="74" height="82" viewBox="0 0 74 82" fill="none" xmlns="http://www.w3.org/2000/svg">
<path d="M33.6883 1.1944C32.3636 1.28049 31.4272 1.40962 29.8056 1.73246C19.7562 3.75555 11.4198 10.1584 7.37717 18.9611C5.59569 22.8243 4.88767 26.1603 4.87625 30.6692C4.86483 34.9091 5.32162 37.3411 6.8747 41.2689C9.68396 48.3498 15.0969 56.7435 22.0287 64.7821C25.8087 69.1619 28.6864 72.1857 33.5741 76.9206L36.1664 79.4172L39.067 76.6409C46.2272 69.7968 51.3432 64.0395 56.2537 57.3569C61.6096 50.0608 65.7892 42.0653 66.9312 36.9107C67.7991 33.0259 67.8105 28.4847 66.9769 24.7613C65.2867 17.2608 60.6161 10.6104 54.0154 6.32748C50.4068 3.98154 45.542 2.1091 41.6821 1.57104C39.2497 1.23745 35.7324 1.06527 33.6883 1.1944ZM40.5972 15.3884C45.7932 15.7973 50.0185 18.0894 52.8735 22.0603C56.0596 26.5046 56.4707 32.2941 53.9469 37.0506C51.7315 41.2044 47.8259 44.0884 42.9383 45.1537C42.2074 45.3151 41.3053 45.3474 36.863 45.3797L31.6327 45.4227V49.1892V52.9448H27.6358H23.6389V34.1128V15.2808H31.4386C35.721 15.2808 39.8435 15.3346 40.5972 15.3884ZM40.7685 71.2818C40.7685 71.3033 40.6772 71.3894 40.5744 71.4647C40.3917 71.6046 40.3803 71.5939 40.5287 71.4217C40.6772 71.2495 40.7685 71.1957 40.7685 71.2818Z" fill="#F1526F"/>
<path d="M31.6327 30.4109V38.0083L36.2349 37.9545C41.408 37.9007 41.4537 37.9007 43.2466 37.0721C45.1308 36.2004 46.5469 34.597 47.2435 32.5524C47.6546 31.3471 47.6774 29.4747 47.2778 28.3555C46.17 25.181 43.7148 23.287 40.2546 22.9212C39.695 22.8674 37.5139 22.8135 35.4355 22.8135H31.6327V30.4109Z" fill="#F1526F"/>
</svg>
